<mxfile host="app.diagrams.net" modified="2022-08-24T07:04:42.556Z" agent="5.0 (Macintosh; Intel Mac OS X 10_15_7) AppleWebKit/537.36 (KHTML, like Gecko) Chrome/104.0.0.0 Safari/537.36" etag="xrj4Gf_aDJOUT5ULN0jc" version="20.2.6" type="github">
  <diagram id="vAG85smYJPGC9wGoXjrp" name="第 1 页">
    <mxGraphModel dx="1426" dy="624" grid="1" gridSize="10" guides="1" tooltips="1" connect="1" arrows="1" fold="1" page="1" pageScale="1" pageWidth="827" pageHeight="1169" math="0" shadow="0">
      <root>
        <mxCell id="0" />
        <mxCell id="1" parent="0" />
        <mxCell id="sP3ClNTAryZ4pFF7K1qC-3" style="edgeStyle=orthogonalEdgeStyle;rounded=0;orthogonalLoop=1;jettySize=auto;html=1;entryX=0;entryY=0.5;entryDx=0;entryDy=0;fontSize=24;strokeColor=#3399FF;" edge="1" parent="1" source="sP3ClNTAryZ4pFF7K1qC-1" target="sP3ClNTAryZ4pFF7K1qC-2">
          <mxGeometry relative="1" as="geometry" />
        </mxCell>
        <mxCell id="sP3ClNTAryZ4pFF7K1qC-1" value="&lt;font style=&quot;font-size: 24px;&quot;&gt;管理员&lt;/font&gt;" style="rounded=0;whiteSpace=wrap;html=1;strokeColor=#97D077;" vertex="1" parent="1">
          <mxGeometry x="110" y="80" width="120" height="50" as="geometry" />
        </mxCell>
        <mxCell id="sP3ClNTAryZ4pFF7K1qC-19" style="edgeStyle=orthogonalEdgeStyle;rounded=0;orthogonalLoop=1;jettySize=auto;html=1;entryX=0.5;entryY=0;entryDx=0;entryDy=0;entryPerimeter=0;fontSize=24;strokeColor=#3399FF;" edge="1" parent="1" source="sP3ClNTAryZ4pFF7K1qC-2" target="sP3ClNTAryZ4pFF7K1qC-5">
          <mxGeometry relative="1" as="geometry" />
        </mxCell>
        <mxCell id="sP3ClNTAryZ4pFF7K1qC-2" value="广告产品上传" style="rounded=1;whiteSpace=wrap;html=1;fontSize=24;strokeColor=#97D077;" vertex="1" parent="1">
          <mxGeometry x="280" y="80" width="160" height="50" as="geometry" />
        </mxCell>
        <mxCell id="sP3ClNTAryZ4pFF7K1qC-20" style="edgeStyle=orthogonalEdgeStyle;rounded=0;orthogonalLoop=1;jettySize=auto;html=1;exitX=0.5;exitY=0;exitDx=0;exitDy=0;entryX=0;entryY=0.5;entryDx=0;entryDy=0;entryPerimeter=0;fontSize=24;strokeColor=#3399FF;" edge="1" parent="1" source="sP3ClNTAryZ4pFF7K1qC-4" target="sP3ClNTAryZ4pFF7K1qC-5">
          <mxGeometry relative="1" as="geometry" />
        </mxCell>
        <mxCell id="sP3ClNTAryZ4pFF7K1qC-21" value="&lt;font style=&quot;font-size: 24px;&quot;&gt;浏览产品列表&lt;/font&gt;" style="edgeLabel;html=1;align=center;verticalAlign=middle;resizable=0;points=[];fontSize=24;" vertex="1" connectable="0" parent="sP3ClNTAryZ4pFF7K1qC-20">
          <mxGeometry x="-0.1874" y="2" relative="1" as="geometry">
            <mxPoint x="102" y="-23" as="offset" />
          </mxGeometry>
        </mxCell>
        <mxCell id="sP3ClNTAryZ4pFF7K1qC-27" style="edgeStyle=orthogonalEdgeStyle;rounded=0;orthogonalLoop=1;jettySize=auto;html=1;entryX=0;entryY=0.5;entryDx=0;entryDy=0;fontSize=24;strokeColor=#3399FF;" edge="1" parent="1" source="sP3ClNTAryZ4pFF7K1qC-4" target="sP3ClNTAryZ4pFF7K1qC-26">
          <mxGeometry relative="1" as="geometry" />
        </mxCell>
        <mxCell id="sP3ClNTAryZ4pFF7K1qC-28" value="适宜的产品" style="edgeLabel;html=1;align=center;verticalAlign=middle;resizable=0;points=[];fontSize=24;" vertex="1" connectable="0" parent="sP3ClNTAryZ4pFF7K1qC-27">
          <mxGeometry x="-0.0161" relative="1" as="geometry">
            <mxPoint as="offset" />
          </mxGeometry>
        </mxCell>
        <mxCell id="sP3ClNTAryZ4pFF7K1qC-33" style="edgeStyle=orthogonalEdgeStyle;rounded=0;orthogonalLoop=1;jettySize=auto;html=1;entryX=0.5;entryY=0;entryDx=0;entryDy=0;fontSize=24;strokeColor=#3399FF;" edge="1" parent="1" source="sP3ClNTAryZ4pFF7K1qC-4" target="sP3ClNTAryZ4pFF7K1qC-31">
          <mxGeometry relative="1" as="geometry" />
        </mxCell>
        <mxCell id="sP3ClNTAryZ4pFF7K1qC-34" style="edgeStyle=orthogonalEdgeStyle;rounded=0;orthogonalLoop=1;jettySize=auto;html=1;fontSize=24;strokeColor=#3399FF;" edge="1" parent="1" source="sP3ClNTAryZ4pFF7K1qC-4" target="sP3ClNTAryZ4pFF7K1qC-32">
          <mxGeometry relative="1" as="geometry">
            <Array as="points">
              <mxPoint x="120" y="370" />
              <mxPoint x="288" y="370" />
            </Array>
          </mxGeometry>
        </mxCell>
        <mxCell id="sP3ClNTAryZ4pFF7K1qC-35" value="查看" style="edgeLabel;html=1;align=center;verticalAlign=middle;resizable=0;points=[];fontSize=24;" vertex="1" connectable="0" parent="sP3ClNTAryZ4pFF7K1qC-34">
          <mxGeometry x="-0.8058" y="-2" relative="1" as="geometry">
            <mxPoint x="2" y="13" as="offset" />
          </mxGeometry>
        </mxCell>
        <mxCell id="sP3ClNTAryZ4pFF7K1qC-4" value="用户" style="rounded=0;whiteSpace=wrap;html=1;fontSize=24;strokeColor=#97D077;" vertex="1" parent="1">
          <mxGeometry x="60" y="240" width="120" height="50" as="geometry" />
        </mxCell>
        <mxCell id="sP3ClNTAryZ4pFF7K1qC-24" style="edgeStyle=orthogonalEdgeStyle;rounded=0;orthogonalLoop=1;jettySize=auto;html=1;entryX=0.5;entryY=0;entryDx=0;entryDy=0;fontSize=24;strokeColor=#3399FF;" edge="1" parent="1" source="sP3ClNTAryZ4pFF7K1qC-5" target="sP3ClNTAryZ4pFF7K1qC-4">
          <mxGeometry relative="1" as="geometry" />
        </mxCell>
        <mxCell id="sP3ClNTAryZ4pFF7K1qC-5" value="产品列表" style="shape=cylinder3;whiteSpace=wrap;html=1;boundedLbl=1;backgroundOutline=1;size=15;fontSize=24;strokeColor=#97D077;" vertex="1" parent="1">
          <mxGeometry x="590" y="150" width="110" height="70" as="geometry" />
        </mxCell>
        <mxCell id="sP3ClNTAryZ4pFF7K1qC-25" value="返回产品列表" style="edgeLabel;html=1;align=center;verticalAlign=middle;resizable=0;points=[];fontSize=24;" vertex="1" connectable="0" parent="1">
          <mxGeometry x="400" y="160" as="geometry">
            <mxPoint x="-16" y="46" as="offset" />
          </mxGeometry>
        </mxCell>
        <mxCell id="sP3ClNTAryZ4pFF7K1qC-30" style="edgeStyle=orthogonalEdgeStyle;rounded=0;orthogonalLoop=1;jettySize=auto;html=1;entryX=0;entryY=0.5;entryDx=0;entryDy=0;fontSize=24;strokeColor=#3399FF;" edge="1" parent="1" source="sP3ClNTAryZ4pFF7K1qC-26" target="sP3ClNTAryZ4pFF7K1qC-29">
          <mxGeometry relative="1" as="geometry" />
        </mxCell>
        <mxCell id="sP3ClNTAryZ4pFF7K1qC-26" value="获取产品" style="rounded=1;whiteSpace=wrap;html=1;fontSize=24;strokeColor=#97D077;" vertex="1" parent="1">
          <mxGeometry x="364" y="240" width="120" height="50" as="geometry" />
        </mxCell>
        <mxCell id="sP3ClNTAryZ4pFF7K1qC-40" style="edgeStyle=orthogonalEdgeStyle;rounded=0;orthogonalLoop=1;jettySize=auto;html=1;entryX=0.5;entryY=0;entryDx=0;entryDy=0;entryPerimeter=0;fontSize=24;fontColor=#3399FF;strokeColor=#3399FF;" edge="1" parent="1" source="sP3ClNTAryZ4pFF7K1qC-29" target="sP3ClNTAryZ4pFF7K1qC-36">
          <mxGeometry relative="1" as="geometry">
            <Array as="points">
              <mxPoint x="640" y="350" />
              <mxPoint x="568" y="350" />
            </Array>
          </mxGeometry>
        </mxCell>
        <mxCell id="sP3ClNTAryZ4pFF7K1qC-41" style="edgeStyle=orthogonalEdgeStyle;rounded=0;orthogonalLoop=1;jettySize=auto;html=1;entryX=0.5;entryY=0;entryDx=0;entryDy=0;entryPerimeter=0;fontSize=24;fontColor=#3399FF;strokeColor=#3399FF;" edge="1" parent="1" source="sP3ClNTAryZ4pFF7K1qC-29" target="sP3ClNTAryZ4pFF7K1qC-37">
          <mxGeometry relative="1" as="geometry" />
        </mxCell>
        <mxCell id="sP3ClNTAryZ4pFF7K1qC-42" style="edgeStyle=orthogonalEdgeStyle;rounded=0;orthogonalLoop=1;jettySize=auto;html=1;entryX=0.5;entryY=0;entryDx=0;entryDy=0;fontSize=24;fontColor=#3399FF;strokeColor=#3399FF;" edge="1" parent="1" source="sP3ClNTAryZ4pFF7K1qC-29" target="sP3ClNTAryZ4pFF7K1qC-39">
          <mxGeometry relative="1" as="geometry">
            <Array as="points">
              <mxPoint x="640" y="350" />
              <mxPoint x="715" y="350" />
            </Array>
          </mxGeometry>
        </mxCell>
        <mxCell id="sP3ClNTAryZ4pFF7K1qC-43" value="&lt;font color=&quot;#000000&quot;&gt;推广&lt;/font&gt;" style="edgeLabel;html=1;align=center;verticalAlign=middle;resizable=0;points=[];fontSize=24;fontColor=#3399FF;" vertex="1" connectable="0" parent="sP3ClNTAryZ4pFF7K1qC-42">
          <mxGeometry x="-0.6727" y="1" relative="1" as="geometry">
            <mxPoint as="offset" />
          </mxGeometry>
        </mxCell>
        <mxCell id="sP3ClNTAryZ4pFF7K1qC-29" value="生成链接" style="rounded=1;whiteSpace=wrap;html=1;fontSize=24;strokeColor=#97D077;" vertex="1" parent="1">
          <mxGeometry x="580" y="240" width="120" height="50" as="geometry" />
        </mxCell>
        <mxCell id="sP3ClNTAryZ4pFF7K1qC-31" value="订单详情" style="rounded=1;whiteSpace=wrap;html=1;fontSize=24;strokeColor=#97D077;" vertex="1" parent="1">
          <mxGeometry x="60" y="400" width="120" height="50" as="geometry" />
        </mxCell>
        <mxCell id="sP3ClNTAryZ4pFF7K1qC-32" value="结算详情" style="rounded=1;whiteSpace=wrap;html=1;fontSize=24;strokeColor=#97D077;" vertex="1" parent="1">
          <mxGeometry x="230" y="400" width="116" height="50" as="geometry" />
        </mxCell>
        <mxCell id="sP3ClNTAryZ4pFF7K1qC-36" value="" style="verticalLabelPosition=bottom;html=1;verticalAlign=top;align=center;strokeColor=none;fillColor=#00BEF2;shape=mxgraph.azure.mobile;pointerEvents=1;fontSize=24;" vertex="1" parent="1">
          <mxGeometry x="550" y="380" width="35" height="50" as="geometry" />
        </mxCell>
        <mxCell id="sP3ClNTAryZ4pFF7K1qC-37" value="" style="verticalLabelPosition=bottom;html=1;verticalAlign=top;align=center;strokeColor=none;fillColor=#00BEF2;shape=mxgraph.azure.laptop;pointerEvents=1;fontSize=24;" vertex="1" parent="1">
          <mxGeometry x="615" y="385" width="50" height="40" as="geometry" />
        </mxCell>
        <mxCell id="sP3ClNTAryZ4pFF7K1qC-39" value="" style="shape=image;html=1;verticalAlign=top;verticalLabelPosition=bottom;labelBackgroundColor=#ffffff;imageAspect=0;aspect=fixed;image=https://cdn0.iconfinder.com/data/icons/business-collection-2027/60/presentation-3-128.png;fontSize=24;strokeColor=#97D077;" vertex="1" parent="1">
          <mxGeometry x="690" y="380" width="50" height="50" as="geometry" />
        </mxCell>
      </root>
    </mxGraphModel>
  </diagram>
</mxfile>
